# xmcd
# 
# Track frame offsets:
#     182
#     14592
#     23647
#     34882
#     42627
#     58465
#     71812
#     79927
#     96305
#     109122
#     119695
#     131555
#     142002
#     154920
#     166840
#     178455
# 
# Disc length: 2540
# 
# Revision: 1
# Processed by: cddbd v1.5.2PL0 Copyright (c) Steve Scherf et al.
# Submitted via: fre:ac v1.0.17
# 
DISCID=f609ea10
DTITLE=Diverse Artist - Country Trucking volume 1
DYEAR=0
DGENRE=Country
TTITLE0=Highway 40 blues
TTITLE1=Don`t fight the feelings of love
TTITLE2=If practice makes perfect
TTITLE3=Deep in the heart of texas
TTITLE4=Leave me alone
TTITLE5=I`d like to see jesus on the midnigt special
TTITLE6=Country sunshine
TTITLE7=Fancy free
TTITLE8=Bet your heart on me
TTITLE9=You are looking at country
TTITLE10=One`s on the way
TTITLE11=Maybellene
TTITLE12=Faking love
TTITLE13=My little rat
TTITLE14=If i keep on going crazy
TTITLE15=Freightliner fever
EXTD=
EXTT0=
EXTT1=
EXTT2=
EXTT3=
EXTT4=
EXTT5=
EXTT6=
EXTT7=
EXTT8=
EXTT9=
EXTT10=
EXTT11=
EXTT12=
EXTT13=
EXTT14=
EXTT15=
PLAYORDER=
